<?xml version="1.0"?>
<svg version="1.1" xmlns="http://www.w3.org/2000/svg" width="236px" height="40px" style=""><path fill="#020b12" d="M25.2734375,33.791015625l-3.953125,0l-4.30126953125-6.91796875l-1.47119140625,1.0556640625l0,5.8623046875l-3.4814453125,0l0-16.4189453125l3.4814453125,0l0,7.51318359375l1.3701171875-1.931640625l4.447265625-5.58154296875l3.86328125,0l-5.7275390625,7.26611328125z M42.285014648437,17.3720703125l0,10.6240234375q0,1.8193359375-0.814208984375,3.189453125t-2.352783203125,2.10009765625t-3.638671875,0.72998046875q-3.1669921875,0-4.9189453125-1.622802734375t-1.751953125-4.441650390625l0-10.5791015625l3.47021484375,0l0,10.05126953125q0,1.89794921875,0.763671875,2.78515625t2.52685546875,0.88720703125q1.70703125,0,2.476318359375-0.892822265625t0.769287109375-2.802001953125l0-10.02880859375l3.47021484375,0z M54.838095703125,33.791015625l-3.953125-12.88134765625l-0.10107421875,0q0.21337890625,3.9306640625,0.21337890625,5.24462890625l0,7.63671875l-3.11083984375,0l0-16.4189453125l4.7392578125,0l3.8857421875,12.5556640625l0.0673828125,0l4.12158203125-12.5556640625l4.7392578125,0l0,16.4189453125l-3.24560546875,0l0-7.771484375q0-0.55029296875,0.016845703125-1.26904296875t0.151611328125-3.818359375l-0.10107421875,0l-4.23388671875,12.85888671875l-3.189453125,0z M81.204653320313,33.791015625l-1.1904296875-3.908203125l-5.98583984375,0l-1.1904296875,3.908203125l-3.7509765625,0l5.794921875-16.486328125l4.25634765625,0l5.8173828125,16.486328125l-3.7509765625,0z M79.183168945313,26.962890625q-1.65087890625-5.31201171875-1.858642578125-6.00830078125t-0.297607421875-1.1005859375q-0.37060546875,1.4375-2.12255859375,7.10888671875l4.27880859375,0z M92.08439453125,24.66064453125l1.123046875,0q1.65087890625,0,2.43701171875-0.55029296875t0.7861328125-1.7294921875q0-1.16796875-0.802978515625-1.662109375t-2.487548828125-0.494140625l-1.0556640625,0l0,4.43603515625z M92.08439453125,27.49072265625l0,6.30029296875l-3.4814453125,0l0-16.4189453125l4.7841796875,0q3.3466796875,0,4.95263671875,1.218505859375t1.60595703125,3.700439453125q0,1.44873046875-0.79736328125,2.577392578125t-2.25732421875,1.768798828125q3.7060546875,5.53662109375,4.8291015625,7.15380859375l-3.86328125,0l-3.91943359375-6.30029296875l-1.85302734375,0z"/><path fill="#f5da42" d="M119.5224609375,33.791015625l-9.4560546875,0l0-16.4189453125l9.4560546875,0l0,2.8525390625l-5.974609375,0l0,3.60498046875l5.55908203125,0l0,2.8525390625l-5.55908203125,0l0,4.23388671875l5.974609375,0l0,2.875z M127.54966308594,26.962890625l1.49365234375-1.9091796875l3.51513671875-3.818359375l3.86328125,0l-4.986328125,5.44677734375l5.28955078125,7.10888671875l-3.953125,0l-3.6162109375-5.08740234375l-1.47119140625,1.17919921875l0,3.908203125l-3.42529296875,0l0-17.474609375l3.42529296875,0l0,7.7939453125l-0.1796875,2.8525390625l0.044921875,0z M140.37227539062,33.791015625l0-16.4189453125l3.4814453125,0l0,13.5439453125l6.65966796875,0l0,2.875l-10.14111328125,0z M164.99811035156,33.791015625l-1.1904296875-3.908203125l-5.98583984375,0l-1.1904296875,3.908203125l-3.7509765625,0l5.794921875-16.486328125l4.25634765625,0l5.8173828125,16.486328125l-3.7509765625,0z M162.97662597656,26.962890625q-1.65087890625-5.31201171875-1.858642578125-6.00830078125t-0.297607421875-1.1005859375q-0.37060546875,1.4375-2.12255859375,7.10888671875l4.27880859375,0z M181.7626171875,17.3720703125l3.51513671875,0l-5.58154296875,16.4189453125l-3.7958984375,0l-5.5703125-16.4189453125l3.51513671875,0l3.08837890625,9.7705078125q0.25830078125,0.86474609375,0.533447265625,2.015869140625t0.342529296875,1.600341796875q0.12353515625-1.033203125,0.84228515625-3.6162109375z M194.03493652344,24.1328125l3.42529296875-6.7607421875l3.7509765625,0l-5.44677734375,10.02880859375l0,6.39013671875l-3.458984375,0l0-6.27783203125l-5.44677734375-10.14111328125l3.7734375,0z M214.90979492187,33.791015625l-1.1904296875-3.908203125l-5.98583984375,0l-1.1904296875,3.908203125l-3.7509765625,0l5.794921875-16.486328125l4.25634765625,0l5.8173828125,16.486328125l-3.7509765625,0z M212.88831054687,26.962890625q-1.65087890625-5.31201171875-1.858642578125-6.00830078125t-0.297607421875-1.1005859375q-0.37060546875,1.4375-2.12255859375,7.10888671875l4.27880859375,0z"/></svg>
